<mxfile host="app.diagrams.net" agent="Mozilla/5.0 (X11; Linux x86_64) AppleWebKit/537.36 (KHTML, like Gecko) Chrome/130.0.0.0 Safari/537.36" version="24.8.6">
  <diagram name="Page-1" id="929967ad-93f9-6ef4-fab6-5d389245f69c">
    <mxGraphModel grid="1" page="1" gridSize="10" guides="1" tooltips="1" connect="1" arrows="1" fold="1" pageScale="1.5" pageWidth="1169" pageHeight="826" background="none" math="0" shadow="0">
      <root>
        <mxCell id="0" style=";html=1;" />
        <mxCell id="1" style=";html=1;" parent="0" />
        <mxCell id="1672d66443f91eb5-23" value="&lt;font style=&quot;font-size: 35px;&quot;&gt;UniverseGames&lt;/font&gt;" style="text;strokeColor=none;fillColor=none;html=1;fontSize=24;fontStyle=1;verticalAlign=middle;align=center;" vertex="1" parent="1">
          <mxGeometry x="737" y="50" width="2043" height="40" as="geometry" />
        </mxCell>
        <mxCell id="SKr29IaPsxCu_U1CPpAR-2" value="" style="rounded=0;whiteSpace=wrap;html=1;strokeWidth=4;" vertex="1" parent="1">
          <mxGeometry x="737" y="110" width="2043" height="1270" as="geometry" />
        </mxCell>
        <mxCell id="SKr29IaPsxCu_U1CPpAR-3" value="&lt;font style=&quot;font-size: 25px;&quot;&gt;Usuario&lt;/font&gt;" style="shape=umlActor;verticalLabelPosition=bottom;verticalAlign=top;html=1;outlineConnect=0;" vertex="1" parent="1">
          <mxGeometry x="520" y="550" width="150" height="300" as="geometry" />
        </mxCell>
        <mxCell id="SKr29IaPsxCu_U1CPpAR-4" value="&lt;font style=&quot;font-size: 25px;&quot;&gt;Admin&lt;/font&gt;" style="shape=umlActor;verticalLabelPosition=bottom;verticalAlign=top;html=1;outlineConnect=0;" vertex="1" parent="1">
          <mxGeometry x="2840" y="550" width="150" height="300" as="geometry" />
        </mxCell>
        <mxCell id="SKr29IaPsxCu_U1CPpAR-5" value="&lt;font style=&quot;font-size: 25px;&quot;&gt;Comprar Productos&lt;/font&gt;" style="ellipse;whiteSpace=wrap;html=1;" vertex="1" parent="1">
          <mxGeometry x="1602.5" y="392" width="270" height="150" as="geometry" />
        </mxCell>
        <mxCell id="SKr29IaPsxCu_U1CPpAR-6" value="&lt;font style=&quot;font-size: 25px;&quot;&gt;Actualizar carrito de compras&lt;/font&gt;" style="ellipse;whiteSpace=wrap;html=1;" vertex="1" parent="1">
          <mxGeometry x="1258.5" y="262" width="270" height="150" as="geometry" />
        </mxCell>
        <mxCell id="SKr29IaPsxCu_U1CPpAR-7" value="&lt;font style=&quot;font-size: 25px;&quot;&gt;Actualizar el inventario al completar la compra&lt;/font&gt;" style="ellipse;whiteSpace=wrap;html=1;" vertex="1" parent="1">
          <mxGeometry x="1988.5" y="262" width="270" height="150" as="geometry" />
        </mxCell>
        <mxCell id="SKr29IaPsxCu_U1CPpAR-8" value="" style="endArrow=classic;html=1;rounded=0;entryX=0.084;entryY=0.243;entryDx=0;entryDy=0;strokeWidth=3;dashed=1;entryPerimeter=0;" edge="1" parent="1" source="SKr29IaPsxCu_U1CPpAR-6" target="SKr29IaPsxCu_U1CPpAR-5">
          <mxGeometry width="50" height="50" relative="1" as="geometry">
            <mxPoint x="1240" y="250" as="sourcePoint" />
            <mxPoint x="1290" y="200" as="targetPoint" />
          </mxGeometry>
        </mxCell>
        <mxCell id="SKr29IaPsxCu_U1CPpAR-9" value="&lt;font style=&quot;font-size: 20px;&quot;&gt;Extends&lt;/font&gt;" style="edgeLabel;html=1;align=center;verticalAlign=middle;resizable=0;points=[];" connectable="0" vertex="1" parent="SKr29IaPsxCu_U1CPpAR-8">
          <mxGeometry x="-0.1463" y="5" relative="1" as="geometry">
            <mxPoint x="-1" y="1" as="offset" />
          </mxGeometry>
        </mxCell>
        <mxCell id="SKr29IaPsxCu_U1CPpAR-13" value="" style="endArrow=classic;html=1;rounded=0;entryX=0.06;entryY=0.784;entryDx=0;entryDy=0;strokeWidth=3;dashed=1;exitX=0.947;exitY=0.284;exitDx=0;exitDy=0;exitPerimeter=0;entryPerimeter=0;" edge="1" parent="1" source="SKr29IaPsxCu_U1CPpAR-5" target="SKr29IaPsxCu_U1CPpAR-7">
          <mxGeometry width="50" height="50" relative="1" as="geometry">
            <mxPoint x="1089" y="40" as="sourcePoint" />
            <mxPoint x="1180" y="116" as="targetPoint" />
          </mxGeometry>
        </mxCell>
        <mxCell id="SKr29IaPsxCu_U1CPpAR-14" value="&lt;font style=&quot;font-size: 20px;&quot;&gt;Includes&lt;/font&gt;" style="edgeLabel;html=1;align=center;verticalAlign=middle;resizable=0;points=[];" connectable="0" vertex="1" parent="SKr29IaPsxCu_U1CPpAR-13">
          <mxGeometry x="-0.1463" y="5" relative="1" as="geometry">
            <mxPoint x="14" y="3" as="offset" />
          </mxGeometry>
        </mxCell>
        <mxCell id="SKr29IaPsxCu_U1CPpAR-15" value="" style="endArrow=none;html=1;rounded=0;entryX=0;entryY=0.5;entryDx=0;entryDy=0;strokeWidth=3;exitX=0.5;exitY=0.5;exitDx=0;exitDy=0;exitPerimeter=0;" edge="1" parent="1" source="SKr29IaPsxCu_U1CPpAR-3" target="SKr29IaPsxCu_U1CPpAR-5">
          <mxGeometry width="50" height="50" relative="1" as="geometry">
            <mxPoint x="1030" y="180" as="sourcePoint" />
            <mxPoint x="1080" y="130" as="targetPoint" />
          </mxGeometry>
        </mxCell>
        <mxCell id="SKr29IaPsxCu_U1CPpAR-16" value="" style="endArrow=none;html=1;rounded=0;entryX=0.5;entryY=0.5;entryDx=0;entryDy=0;strokeWidth=3;exitX=1;exitY=0.5;exitDx=0;exitDy=0;entryPerimeter=0;" edge="1" parent="1" source="SKr29IaPsxCu_U1CPpAR-5" target="SKr29IaPsxCu_U1CPpAR-4">
          <mxGeometry width="50" height="50" relative="1" as="geometry">
            <mxPoint x="1400" y="154" as="sourcePoint" />
            <mxPoint x="1935" y="154" as="targetPoint" />
          </mxGeometry>
        </mxCell>
        <mxCell id="SKr29IaPsxCu_U1CPpAR-25" value="&lt;font style=&quot;font-size: 25px;&quot;&gt;Consultar compras anteriores&lt;/font&gt;" style="ellipse;whiteSpace=wrap;html=1;" vertex="1" parent="1">
          <mxGeometry x="1600.5" y="950" width="270" height="150" as="geometry" />
        </mxCell>
        <mxCell id="SKr29IaPsxCu_U1CPpAR-26" value="&lt;font style=&quot;font-size: 25px;&quot;&gt;Verificar disponibilidad&amp;nbsp; de los productos (x2)&lt;/font&gt;" style="ellipse;whiteSpace=wrap;html=1;" vertex="1" parent="1">
          <mxGeometry x="1600.5" y="157" width="270" height="150" as="geometry" />
        </mxCell>
        <mxCell id="SKr29IaPsxCu_U1CPpAR-27" value="" style="endArrow=classic;html=1;rounded=0;entryX=0.5;entryY=1;entryDx=0;entryDy=0;strokeWidth=3;dashed=1;exitX=0.5;exitY=0;exitDx=0;exitDy=0;" edge="1" parent="1" source="SKr29IaPsxCu_U1CPpAR-5" target="SKr29IaPsxCu_U1CPpAR-26">
          <mxGeometry width="50" height="50" relative="1" as="geometry">
            <mxPoint x="1403" y="107" as="sourcePoint" />
            <mxPoint x="1559" y="-2" as="targetPoint" />
          </mxGeometry>
        </mxCell>
        <mxCell id="SKr29IaPsxCu_U1CPpAR-28" value="&lt;font style=&quot;font-size: 20px;&quot;&gt;Includes&lt;/font&gt;" style="edgeLabel;html=1;align=center;verticalAlign=middle;resizable=0;points=[];" connectable="0" vertex="1" parent="SKr29IaPsxCu_U1CPpAR-27">
          <mxGeometry x="-0.1463" y="5" relative="1" as="geometry">
            <mxPoint x="6" y="1" as="offset" />
          </mxGeometry>
        </mxCell>
        <mxCell id="SKr29IaPsxCu_U1CPpAR-33" value="&lt;font style=&quot;font-size: 25px;&quot;&gt;Aplicar Filtros y Ordenamientos a los&lt;/font&gt;&lt;div&gt;&lt;font style=&quot;font-size: 25px;&quot;&gt;resultados&lt;/font&gt;&lt;/div&gt;" style="ellipse;whiteSpace=wrap;html=1;" vertex="1" parent="1">
          <mxGeometry x="1370" y="740" width="270" height="150" as="geometry" />
        </mxCell>
        <mxCell id="SKr29IaPsxCu_U1CPpAR-34" value="" style="endArrow=classic;html=1;rounded=0;entryX=0;entryY=0;entryDx=0;entryDy=0;strokeWidth=3;dashed=1;exitX=0.653;exitY=0.985;exitDx=0;exitDy=0;exitPerimeter=0;" edge="1" parent="1" source="SKr29IaPsxCu_U1CPpAR-33" target="SKr29IaPsxCu_U1CPpAR-25">
          <mxGeometry width="50" height="50" relative="1" as="geometry">
            <mxPoint x="1160" y="388" as="sourcePoint" />
            <mxPoint x="1236" y="454" as="targetPoint" />
          </mxGeometry>
        </mxCell>
        <mxCell id="SKr29IaPsxCu_U1CPpAR-35" value="&lt;font style=&quot;font-size: 20px;&quot;&gt;Extends&lt;/font&gt;" style="edgeLabel;html=1;align=center;verticalAlign=middle;resizable=0;points=[];" connectable="0" vertex="1" parent="SKr29IaPsxCu_U1CPpAR-34">
          <mxGeometry x="-0.1463" y="5" relative="1" as="geometry">
            <mxPoint as="offset" />
          </mxGeometry>
        </mxCell>
        <mxCell id="SKr29IaPsxCu_U1CPpAR-36" value="" style="endArrow=none;html=1;rounded=0;strokeWidth=3;exitX=1;exitY=0.5;exitDx=0;exitDy=0;entryX=0.5;entryY=0.5;entryDx=0;entryDy=0;entryPerimeter=0;" edge="1" parent="1" source="SKr29IaPsxCu_U1CPpAR-25" target="SKr29IaPsxCu_U1CPpAR-4">
          <mxGeometry width="50" height="50" relative="1" as="geometry">
            <mxPoint x="1442" y="515" as="sourcePoint" />
            <mxPoint x="1990" y="420" as="targetPoint" />
          </mxGeometry>
        </mxCell>
        <mxCell id="SKr29IaPsxCu_U1CPpAR-37" value="" style="endArrow=none;html=1;rounded=0;strokeWidth=3;exitX=0.5;exitY=0.5;exitDx=0;exitDy=0;exitPerimeter=0;entryX=0;entryY=0.5;entryDx=0;entryDy=0;" edge="1" parent="1" source="SKr29IaPsxCu_U1CPpAR-3" target="SKr29IaPsxCu_U1CPpAR-25">
          <mxGeometry width="50" height="50" relative="1" as="geometry">
            <mxPoint x="645" y="425" as="sourcePoint" />
            <mxPoint x="1172" y="515" as="targetPoint" />
          </mxGeometry>
        </mxCell>
        <mxCell id="SKr29IaPsxCu_U1CPpAR-39" value="&lt;font style=&quot;font-size: 25px;&quot;&gt;Consultar ventas de la organizaciÃ³n&lt;/font&gt;" style="ellipse;whiteSpace=wrap;html=1;" vertex="1" parent="1">
          <mxGeometry x="2420" y="950" width="270" height="150" as="geometry" />
        </mxCell>
        <mxCell id="SKr29IaPsxCu_U1CPpAR-40" style="edgeStyle=orthogonalEdgeStyle;rounded=0;orthogonalLoop=1;jettySize=auto;html=1;exitX=0.5;exitY=1;exitDx=0;exitDy=0;" edge="1" parent="1" source="SKr29IaPsxCu_U1CPpAR-2" target="SKr29IaPsxCu_U1CPpAR-2">
          <mxGeometry relative="1" as="geometry" />
        </mxCell>
        <mxCell id="SKr29IaPsxCu_U1CPpAR-41" value="&lt;font style=&quot;font-size: 25px;&quot;&gt;Consultar Inventario&lt;/font&gt;" style="ellipse;whiteSpace=wrap;html=1;" vertex="1" parent="1">
          <mxGeometry x="2070" y="950" width="270" height="150" as="geometry" />
        </mxCell>
        <mxCell id="SKr29IaPsxCu_U1CPpAR-42" value="&lt;font style=&quot;font-size: 25px;&quot;&gt;Filtrar por sucursales&amp;nbsp;&lt;/font&gt;&lt;div&gt;&lt;font style=&quot;font-size: 25px;&quot;&gt;y/u otros parÃ¡metros&lt;/font&gt;&lt;/div&gt;" style="ellipse;whiteSpace=wrap;html=1;" vertex="1" parent="1">
          <mxGeometry x="2420" y="1200" width="270" height="150" as="geometry" />
        </mxCell>
        <mxCell id="SKr29IaPsxCu_U1CPpAR-43" value="" style="endArrow=none;html=1;rounded=0;strokeWidth=3;exitX=1;exitY=0;exitDx=0;exitDy=0;entryX=0.5;entryY=0.5;entryDx=0;entryDy=0;entryPerimeter=0;" edge="1" parent="1" source="SKr29IaPsxCu_U1CPpAR-41" target="SKr29IaPsxCu_U1CPpAR-4">
          <mxGeometry width="50" height="50" relative="1" as="geometry">
            <mxPoint x="1880" y="825" as="sourcePoint" />
            <mxPoint x="2900" y="410" as="targetPoint" />
          </mxGeometry>
        </mxCell>
        <mxCell id="SKr29IaPsxCu_U1CPpAR-44" value="" style="endArrow=none;html=1;rounded=0;strokeWidth=3;exitX=0.5;exitY=0;exitDx=0;exitDy=0;entryX=0.5;entryY=0.5;entryDx=0;entryDy=0;entryPerimeter=0;" edge="1" parent="1" source="SKr29IaPsxCu_U1CPpAR-39" target="SKr29IaPsxCu_U1CPpAR-4">
          <mxGeometry width="50" height="50" relative="1" as="geometry">
            <mxPoint x="2125" y="800" as="sourcePoint" />
            <mxPoint x="2900" y="410" as="targetPoint" />
          </mxGeometry>
        </mxCell>
        <mxCell id="SKr29IaPsxCu_U1CPpAR-46" value="" style="endArrow=classic;html=1;rounded=0;strokeWidth=3;dashed=1;" edge="1" parent="1" source="SKr29IaPsxCu_U1CPpAR-42" target="SKr29IaPsxCu_U1CPpAR-39">
          <mxGeometry width="50" height="50" relative="1" as="geometry">
            <mxPoint x="1556" y="688" as="sourcePoint" />
            <mxPoint x="1650" y="772" as="targetPoint" />
          </mxGeometry>
        </mxCell>
        <mxCell id="SKr29IaPsxCu_U1CPpAR-47" value="&lt;font style=&quot;font-size: 20px;&quot;&gt;Extends&lt;/font&gt;" style="edgeLabel;html=1;align=center;verticalAlign=middle;resizable=0;points=[];" connectable="0" vertex="1" parent="SKr29IaPsxCu_U1CPpAR-46">
          <mxGeometry x="-0.1463" y="5" relative="1" as="geometry">
            <mxPoint x="5" y="-5" as="offset" />
          </mxGeometry>
        </mxCell>
        <mxCell id="SKr29IaPsxCu_U1CPpAR-50" value="&lt;font style=&quot;font-size: 25px;&quot;&gt;Aplicar Filtros y Ordenamientos a los&lt;/font&gt;&lt;div&gt;&lt;font style=&quot;font-size: 25px;&quot;&gt;resultados&lt;/font&gt;&lt;/div&gt;" style="ellipse;whiteSpace=wrap;html=1;" vertex="1" parent="1">
          <mxGeometry x="2070" y="1200" width="270" height="150" as="geometry" />
        </mxCell>
        <mxCell id="SKr29IaPsxCu_U1CPpAR-51" value="" style="endArrow=classic;html=1;rounded=0;strokeWidth=3;dashed=1;exitX=0.5;exitY=0;exitDx=0;exitDy=0;entryX=0.5;entryY=1;entryDx=0;entryDy=0;" edge="1" parent="1" source="SKr29IaPsxCu_U1CPpAR-50" target="SKr29IaPsxCu_U1CPpAR-41">
          <mxGeometry width="50" height="50" relative="1" as="geometry">
            <mxPoint x="2545" y="1050" as="sourcePoint" />
            <mxPoint x="2545" y="950" as="targetPoint" />
          </mxGeometry>
        </mxCell>
        <mxCell id="SKr29IaPsxCu_U1CPpAR-52" value="&lt;font style=&quot;font-size: 20px;&quot;&gt;Extends&lt;/font&gt;" style="edgeLabel;html=1;align=center;verticalAlign=middle;resizable=0;points=[];" connectable="0" vertex="1" parent="SKr29IaPsxCu_U1CPpAR-51">
          <mxGeometry x="-0.1463" y="5" relative="1" as="geometry">
            <mxPoint x="5" y="-5" as="offset" />
          </mxGeometry>
        </mxCell>
        <mxCell id="SKr29IaPsxCu_U1CPpAR-55" value="&lt;font style=&quot;font-size: 25px;&quot;&gt;Gestionar carrito de compras&lt;/font&gt;" style="ellipse;whiteSpace=wrap;html=1;" vertex="1" parent="1">
          <mxGeometry x="1602.5" y="590" width="270" height="150" as="geometry" />
        </mxCell>
        <mxCell id="SKr29IaPsxCu_U1CPpAR-56" value="" style="endArrow=none;html=1;rounded=0;entryX=-0.01;entryY=0.422;entryDx=0;entryDy=0;strokeWidth=3;entryPerimeter=0;exitX=0.5;exitY=0.5;exitDx=0;exitDy=0;exitPerimeter=0;" edge="1" parent="1" source="SKr29IaPsxCu_U1CPpAR-3" target="SKr29IaPsxCu_U1CPpAR-55">
          <mxGeometry width="50" height="50" relative="1" as="geometry">
            <mxPoint x="640" y="420" as="sourcePoint" />
            <mxPoint x="1613" y="477" as="targetPoint" />
          </mxGeometry>
        </mxCell>
        <mxCell id="SKr29IaPsxCu_U1CPpAR-57" value="" style="endArrow=none;html=1;rounded=0;strokeWidth=3;exitX=1;exitY=0.5;exitDx=0;exitDy=0;entryX=0.5;entryY=0.5;entryDx=0;entryDy=0;entryPerimeter=0;" edge="1" parent="1" source="SKr29IaPsxCu_U1CPpAR-55" target="SKr29IaPsxCu_U1CPpAR-4">
          <mxGeometry width="50" height="50" relative="1" as="geometry">
            <mxPoint x="1881" y="1065" as="sourcePoint" />
            <mxPoint x="2900" y="410" as="targetPoint" />
          </mxGeometry>
        </mxCell>
      </root>
    </mxGraphModel>
  </diagram>
</mxfile>
